#!OML:ASF G:\JayActor3\Patient Classification 1\Patient 1\Session 6\male.ASF
:FULLY-SPECIFIED
:DEGREES
1197
root -30.0757 16.3076 -7.51459 187.605 -9.75881 -181.604
lowerback 7.66624 -4.58417 -4.08881
upperback 0.23839 -6.62198 -1.62425
thorax -3.76865 -3.26466 1.29635
lowerneck -7.07865 -0.517316 1.15997
upperneck -10.6983 0.310061 1.82706
head -2.17145 0.474606 0.366386
rclavicle 8.15017e-015 3.65764e-014
rhumerus -41.7777 -6.55656 -85.2451
rradius 25.7266
rwrist 3.7761
rhand -18.627 -12.7236
rfingers 7.12502
rthumb 7.66521 -42.5647
lclavicle 8.15017e-015 3.65764e-014
lhumerus -0.134886 -22.3131 84.7413
lradius 55.7368
lwrist 25.9907
lhand -13.4406 11.245
lfingers 7.12502
lthumb 12.6684 40.8408
rfemur -40.0874 -4.06862 17.3178
rtibia 43.1934
rfoot -22.0085 -14.7468
rtoes -15.791
lfemur 4.29047 21.2938 -21.3829
ltibia 14.866
lfoot -13.6827 -15.203
ltoes 8.33016
1198
root -30.0596 16.283 -7.63602 187.452 -10.1062 -181.914
lowerback 7.46025 -4.65213 -4.27759
upperback 0.20807 -6.7258 -1.71225
thorax -3.66989 -3.31756 1.30079
lowerneck -6.73954 -0.446856 1.17378
upperneck -10.1856 0.30467 1.6904
head -2.05945 0.440791 0.32168
rclavicle 6.95746e-015 -3.18055e-015
rhumerus -41.7868 -6.35863 -85.4885
rradius 25.1432
rwrist 4.25274
rhand -17.9937 -12.7444
rfingers 7.12502
rthumb 8.2764 -42.5623
lclavicle 6.95746e-015 -3.18055e-015
lhumerus -1.49048 -22.3867 85.635
lradius 55.7636
lwrist 26.2284
lhand -12.3045 11.4289
lfingers 7.12502
lthumb 13.7636 40.9536
rfemur -39.0959 -3.11332 16.8072
rtibia 42.7254
rfoot -21.7716 -15.3009
rtoes -14.0265
lfemur 5.47895 20.8795 -21.2426
ltibia 14.0324
lfoot -13.3975 -15.3217
ltoes 7.97327
1199
root -30.0443 16.2663 -7.75869 187.245 -10.4331 -182.161
lowerback 7.2943 -4.70585 -4.40219
upperback 0.182511 -6.80499 -1.78466
thorax -3.59482 -3.35835 1.28708
lowerneck -6.38322 -0.375524 1.15444
upperneck -9.67631 0.307886 1.57031
head -1.95261 0.413265 0.287837
rclavicle -7.07673e-014 -1.66979e-014
rhumerus -41.7552 -6.21838 -85.6842
rradius 24.5626
rwrist 4.8517
rhand -17.3195 -12.698
rfingers 7.12502
rthumb 8.92706 -42.4891
lclavicle -7.07673e-014 -1.66979e-014
lhumerus -2.8365 -22.3943 86.5302
lradius 55.5834
lwrist 26.4467
lhand -11.2649 11.6
lfingers 7.12502
lthumb 14.7653 41.054
rfemur -38.2177 -2.1988 16.3872
rtibia 42.6072
rfoot -21.1862 -15.8806
rtoes -11.4221
lfemur 6.86194 20.3125 -21.0637
ltibia 12.9141
lfoot -12.9987 -15.2327
ltoes 7.48683
1200
root -30.0304 16.2577 -7.88186 186.98 -10.7094 -182.267
lowerback 7.16566 -4.73812 -4.37874
upperback 0.164314 -6.84048 -1.82107
thorax -3.54734 -3.37784 1.22892
lowerneck -6.00736 -0.307496 1.10105
upperneck -9.2061 0.318218 1.47151
head -1.86282 0.392339 0.266335
rclavicle -1.1609e-013 -2.54444e-014
rhumerus -41.6786 -6.09925 -85.8502
rradius 23.9957
rwrist 5.51348
rhand -16.6693 -12.6128
rfingers 7.12502
rthumb 9.55445 -42.3762
lclavicle -1.1609e-013 -2.54444e-014
lhumerus -4.15686 -22.3146 87.4268
lradius 55.1814
lwrist 26.6056
lhand -10.3527 11.7398
lfingers 7.12502
lthumb 15.644 41.1273
rfemur -37.4919 -1.36305 16.1626
rtibia 42.7741
rfoot -20.2359 -16.4908
rtoes -8.12106
lfemur 8.41916 19.6182 -20.7842
ltibia 11.522
lfoot -12.4987 -14.9029
ltoes 6.83966
1201
root -30.0186 16.2556 -8.00517 186.657 -10.906 -182.208
lowerback 7.06895 -4.74745 -4.19865
upperback 0.155203 -6.82846 -1.80778
thorax -3.52215 -3.37395 1.13494
lowerneck -5.62801 -0.233024 1.02374
upperneck -8.77647 0.34707 1.38068
head -1.78759 0.383782 0.251273
rclavicle 1.37161e-014 3.49861e-014
rhumerus -41.5525 -5.97317 -85.984
rradius 23.4456
rwrist 6.20126
rhand -16.0888 -12.4923
rfingers 7.12502
rthumb 10.1145 -42.2292
lclavicle 1.37161e-014 3.49861e-014
lhumerus -5.44783 -22.1107 88.3228
lradius 54.5516
lwrist 26.6725
lhand -9.59755 11.8421
lfingers 7.12502
lthumb 16.3712 41.1712
rfemur -36.9132 -0.631384 16.1655
rtibia 43.1264
rfoot -19.0677 -17.1281
rtoes -4.65906
lfemur 10.1334 19.0754 -20.3483
ltibia 9.90643
lfoot -11.8432 -14.5677
ltoes 6.0371
